<?xml version="1.0" encoding="UTF-8"?>
<svg xmlns="http://www.w3.org/2000/svg" width="701" height="197" viewBox="0 0 701 197" fill="none">
  <path fill-rule="evenodd" clip-rule="evenodd" d="M147.001 33.0481V18.9888C142.197 19.7032 136.813 19.5205 130.018 17.6996C116.413 14.0541 110.993 7.55277 104.995 0.00246478L86.6164 0.00244141C89.169 2.50472 91.3513 5.25272 93.6479 8.14669L93.6586 8.16016C100.396 16.6328 108.035 26.2395 126.41 31.1632C134.449 33.317 141.156 33.6677 147.001 33.0481ZM0.00101638 25.3406V11.3065C10.1587 12.6716 17.0053 9.97319 24.7169 6.92524L24.7329 6.91893C34.8038 2.95 46.2226 -1.55017 64.5982 3.37356C82.9738 8.29727 90.6126 17.9039 97.3498 26.3766L97.3605 26.3901C103.534 34.169 108.883 40.8933 122.81 44.6253C133.173 47.4021 140.252 46.3694 147.001 44.1549V49.0022L138.259 60.112C132.779 60.5194 126.546 60.0566 119.203 58.089C100.827 53.1651 93.1882 43.5583 86.451 35.0859L86.4403 35.0724C80.2672 27.2934 74.9179 20.569 60.9906 16.8372C47.0633 13.1054 39.0686 16.2543 29.8331 19.9045L29.8171 19.9109C21.7209 23.1015 12.7536 26.6356 0.00101638 25.3406ZM16.9139 49.0022H0.00101638V38.5456C6.4982 38.1937 11.7555 36.1201 17.4913 33.8529L17.5073 33.8465C27.5782 29.8777 38.997 25.3775 57.3726 30.3013C75.7482 35.2249 83.3873 44.8317 90.1242 53.3044L90.1352 53.3179C96.308 61.0966 101.657 67.8213 115.585 71.5529C120.288 72.8132 124.314 73.2888 127.94 73.2254L117.661 86.2888C115.842 85.9651 113.949 85.5452 111.977 85.0166C93.6016 80.093 85.9625 70.4863 79.2253 62.0135L79.2146 62.0001C76.0073 57.9582 73.0219 54.2008 68.9402 51.0002L66.1218 49.0022C62.8517 46.9157 58.8888 45.1379 53.7649 43.765C39.8376 40.0331 31.843 43.1819 22.6076 46.8321L22.5915 46.8386C20.7552 47.5622 18.8739 48.3037 16.9139 49.0022ZM58.2579 75.5213L67.1297 64.6357C74.2696 69.3574 78.7644 75.0099 82.9166 80.2318L82.9276 80.2452C89.0624 87.9765 94.3838 94.6662 108.122 98.4114L98.9246 110.099C84.6751 104.859 77.9918 96.4541 72.0177 88.9412L72.007 88.9277C67.9553 83.8219 64.2586 79.1703 58.2579 75.5213ZM40.082 97.8228L49.5013 86.2655C63.2679 91.521 69.8284 99.7714 75.7032 107.159L75.7139 107.173C79.949 112.51 83.7964 117.35 90.2926 121.069L81.6006 132.115C73.8684 127.268 69.1488 121.332 64.804 115.869L64.7933 115.855C58.7308 108.215 53.4627 101.592 40.082 97.8228ZM19.6623 122.877L30.2771 109.853C32.0258 110.171 33.8422 110.578 35.7317 111.084C54.1073 116.008 61.7464 125.614 68.4833 134.087L68.4943 134.101C74.6671 141.88 80.0164 148.604 93.9437 152.336C107.871 156.068 115.866 152.919 125.101 149.268L125.118 149.262C127.038 148.505 129.008 147.729 131.065 147.003H147.001V157.6C140.826 158.059 135.744 160.063 130.217 162.248L130.202 162.254C120.131 166.223 108.712 170.723 90.3361 165.8C71.9608 160.876 64.3217 151.269 57.5845 142.796L57.5738 142.783C51.4007 135.004 46.0517 128.28 32.1241 124.548C27.3753 123.275 23.3161 122.803 19.6623 122.877ZM0.000107524 152.186L0 147.003L8.94308 136.03C14.5475 135.553 20.9415 135.981 28.5182 138.011C46.8936 142.935 54.5327 152.542 61.2699 161.014L61.2806 161.028C67.4537 168.807 72.8027 175.531 86.7303 179.263C100.658 182.995 108.652 179.846 117.888 176.196L117.904 176.189C125.847 173.059 134.629 169.598 147.001 170.691V184.703C137.236 183.557 130.532 186.199 123.004 189.175L122.988 189.181C112.917 193.15 101.498 197.65 83.1227 192.727C64.7471 187.803 57.108 178.196 50.3708 169.724L50.3601 169.71C44.1873 161.931 38.838 155.207 24.9106 151.475C14.1784 148.599 6.96899 149.809 0.000107524 152.186ZM0.000626894 177.225L0.000334603 163.134C6.01095 162.409 12.934 162.697 21.2986 164.939C39.6741 169.862 47.3132 179.469 54.0504 187.942L54.0611 187.955C56.3279 190.812 58.4836 193.526 60.994 196.002H42.6364C36.6688 188.493 31.2381 182.032 17.691 178.402C10.5598 176.491 4.984 176.384 0.000626894 177.225Z" fill="url(#paint0_linear_936_793)"></path>
  <path d="M195.001 158.004V141.004L256.001 69.004L195.001 69.252V52.004H280.001V69.004L219.001 141.004H281.501V158.004H195.001Z" fill="black"></path>
  <path d="M334.868 158.004C327.159 158.004 320.234 156.919 314.092 154.436C307.951 151.953 302.79 148.425 298.608 143.852C294.427 139.279 291.226 133.791 289.004 127.388C286.783 120.855 286.001 113.537 286.001 105.436C286.001 97.3347 286.783 90.0173 289.004 83.484C291.356 76.9507 294.558 71.3973 298.608 66.824C302.79 62.12 307.82 58.5267 313.7 56.044C319.58 53.5613 326.114 52.004 333.3 52.004C340.356 52.004 346.759 53.5613 352.508 56.044C358.258 58.396 363.158 61.7933 367.208 66.236C371.259 70.6787 374.33 75.9707 376.42 82.112C378.642 88.2533 380.001 94.556 380.001 102.004V110.004L307.232 110.532V113.864C307.232 121.835 309.715 128.368 314.68 133.464C319.646 138.429 326.506 141.004 335.26 141.004C341.794 141.004 347.347 139.54 351.92 136.796C356.624 133.921 360.126 130.708 363.001 126.004L376.001 137.004C372.604 142.884 367.992 148.033 360.936 152.084C354.011 156.135 345.322 158.004 334.868 158.004ZM333.3 69.0043C329.511 69.0043 325.983 69.2413 322.716 70.548C319.58 71.8547 316.836 73.7493 314.484 76.232C312.263 78.584 310.499 81.3933 309.192 84.66C307.886 87.9267 307.232 91.52 307.232 95.44V96.812H357.996V94.852C357.996 86.8813 355.71 80.544 351.136 75.84C346.694 71.0053 340.748 69.0043 333.3 69.0043Z" fill="black"></path>
  <path d="M426.912 158.004C415.936 158.004 406.462 156.08 398.492 152.552C390.652 149.024 384.836 142.884 380.001 137.004L393.001 126.004C397.444 130.839 402.02 135.239 407.508 137.852C413.126 140.335 419.422 141.004 427.001 141.004C433.926 141.004 439.782 140.4 443.964 138.048C448.276 135.696 450.432 132.037 450.432 127.072C450.432 124.981 450.04 123.217 449.256 121.78C448.472 120.343 447.361 119.167 445.924 118.252C444.486 117.337 442.788 116.619 440.828 116.096C438.998 115.573 437.038 115.181 434.948 114.92L418.876 112.372C414.956 111.849 410.97 111 406.92 109.824C402.869 108.648 399.21 107.015 395.944 104.924C392.808 102.703 390.194 99.8933 388.104 96.496C386.144 93.0987 385.164 88.7867 385.164 83.56C385.164 73.2373 389.084 65.3973 396.924 60.04C404.894 54.6827 415.348 52.004 428.284 52.004C437.692 52.004 445.793 53.4413 452.588 56.316C459.513 59.06 464.428 63.0387 469.001 68.004L458.001 80.004C455.388 76.9987 451.542 74.6747 446.708 72.192C441.873 69.5787 435.47 68.272 427.5 68.272C413.257 68.272 406.136 72.78 406.136 81.796C406.136 86.108 407.638 89.1133 410.644 90.812C413.78 92.38 417.438 93.4253 421.62 93.948L437.692 96.496C441.742 97.1493 445.728 97.9987 449.648 99.044C453.698 100.089 457.292 101.723 460.428 103.944C463.694 106.035 466.308 108.779 468.268 112.176C470.358 115.573 471.404 119.885 471.404 125.112C471.404 135.304 467.418 143.34 459.448 149.22C451.608 154.969 440.762 158.004 426.912 158.004Z" fill="black"></path>
  <path d="M530.721 158.004C521.836 158.004 515.377 155.652 511.195 150.948C507.014 146.113 504.923 139.907 504.923 132.328L505.001 69.004H474.001V52.004H496.001C499.79 52.004 502.433 51.4413 504.001 50.004C505.569 48.436 506.001 45.924 506.001 42.004V16H526.001V51.672V68.92V141.004H561.001V158.004H530.721Z" fill="black"></path>
  <path d="M584.675 41.0043C579.187 41.0043 575.333 40.1377 573.111 37.9163C571.021 35.695 570.001 32.951 570.001 29.6843V27.5683C570.001 24.3017 571.021 21.5577 573.111 19.3363C575.333 17.115 579.122 16.0043 584.479 16.0043C589.967 16.0043 593.757 17.115 595.847 19.3363C598.069 21.5577 599.001 24.3017 599.001 27.5683V29.6843C599.001 32.951 598.069 35.695 595.847 37.9163C593.757 40.1377 590.033 41.0043 584.675 41.0043ZM574.001 69.0043H538.001V52.0043H595.001V158.004H574.001V69.0043Z" fill="black"></path>
  <path d="M607.001 141.004H641.001V69.0043H607.001V52.0043H641.001V41.0044C641.001 33.4257 643.294 27.7241 647.475 23.0201C651.657 18.1854 658.116 16.0044 667.001 16.0044H701.001V33.0161H662.001V52.0043H701.001V69.0043H662.001V141.004H701.001V158.004H607.001V141.004Z" fill="black"></path>
  <defs>
    <linearGradient id="paint0_linear_936_793" x1="73.5006" y1="0.00233285" x2="71.3011" y2="195.977" gradientUnits="userSpaceOnUse">
      <stop stop-color="#FFD700"></stop>
      <stop offset="1" stop-color="#FF00FF"></stop>
    </linearGradient>
  </defs>
</svg>
